<svg width="1572" height="1337" viewBox="0 0 1572 1337" fill="none" xmlns="http://www.w3.org/2000/svg">
<line x1="445" y1="8.74228e-08" x2="445" y2="1337" stroke="#D1D1D1" stroke-width="4"/>
<line x1="1131" y1="8.74228e-08" x2="1131" y2="1337" stroke="#D1D1D1" stroke-width="4"/>
<line x1="1129" y1="671" x2="443" y2="671" stroke="#EAEAEA" stroke-width="4"/>
<line x1="1129" y1="162" x2="443" y2="162" stroke="#EAEAEA" stroke-width="4"/>
<line x1="1507" y1="334" x2="1129" y2="334" stroke="#D2D2D2" stroke-width="4" stroke-dasharray="10 10"/>
<line x1="1507" y1="1005" x2="1129" y2="1005" stroke="#D2D2D2" stroke-width="4" stroke-dasharray="10 10"/>
<path d="M1525.32 339V328.091H1529.13C1529.89 328.091 1530.52 328.222 1531.02 328.485C1531.51 328.744 1531.88 329.094 1532.12 329.534C1532.36 329.971 1532.48 330.456 1532.48 330.989C1532.48 331.457 1532.4 331.844 1532.23 332.15C1532.07 332.455 1531.85 332.697 1531.58 332.874C1531.31 333.052 1531.02 333.183 1530.71 333.268V333.375C1531.05 333.396 1531.38 333.513 1531.72 333.727C1532.06 333.94 1532.34 334.245 1532.57 334.643C1532.79 335.04 1532.91 335.527 1532.91 336.102C1532.91 336.649 1532.78 337.141 1532.53 337.578C1532.28 338.015 1531.89 338.361 1531.36 338.616C1530.82 338.872 1530.12 339 1529.26 339H1525.32ZM1526.64 337.828H1529.26C1530.13 337.828 1530.74 337.661 1531.1 337.327C1531.47 336.99 1531.65 336.582 1531.65 336.102C1531.65 335.733 1531.56 335.392 1531.37 335.08C1531.18 334.763 1530.91 334.511 1530.56 334.323C1530.21 334.131 1529.8 334.036 1529.33 334.036H1526.64V337.828ZM1526.64 332.885H1529.09C1529.49 332.885 1529.85 332.807 1530.17 332.651C1530.49 332.494 1530.75 332.274 1530.94 331.99C1531.13 331.706 1531.22 331.372 1531.22 330.989C1531.22 330.509 1531.06 330.103 1530.72 329.769C1530.39 329.431 1529.86 329.263 1529.13 329.263H1526.64V332.885ZM1535.83 339V328.091H1539.51C1540.37 328.091 1541.06 328.237 1541.61 328.528C1542.16 328.815 1542.56 329.211 1542.83 329.716C1543.09 330.22 1543.22 330.793 1543.22 331.436C1543.22 332.079 1543.09 332.649 1542.83 333.146C1542.56 333.643 1542.16 334.034 1541.62 334.318C1541.07 334.598 1540.38 334.739 1539.53 334.739H1536.55V333.545H1539.49C1540.07 333.545 1540.54 333.46 1540.9 333.29C1541.26 333.119 1541.52 332.878 1541.68 332.565C1541.84 332.249 1541.92 331.873 1541.92 331.436C1541.92 330.999 1541.84 330.618 1541.68 330.291C1541.51 329.964 1541.25 329.712 1540.89 329.534C1540.53 329.353 1540.06 329.263 1539.47 329.263H1537.15V339H1535.83ZM1540.96 334.099L1543.65 339H1542.11L1539.47 334.099H1540.96ZM1547.49 328.091V339H1546.17V328.091H1547.49ZM1559.67 331.5H1558.35C1558.27 331.12 1558.13 330.786 1557.94 330.499C1557.75 330.211 1557.51 329.969 1557.24 329.774C1556.96 329.575 1556.66 329.426 1556.32 329.327C1555.99 329.227 1555.64 329.178 1555.28 329.178C1554.62 329.178 1554.02 329.344 1553.49 329.678C1552.95 330.012 1552.53 330.504 1552.21 331.154C1551.9 331.804 1551.74 332.601 1551.74 333.545C1551.74 334.49 1551.9 335.287 1552.21 335.937C1552.53 336.587 1552.95 337.079 1553.49 337.413C1554.02 337.746 1554.62 337.913 1555.28 337.913C1555.64 337.913 1555.99 337.864 1556.32 337.764C1556.66 337.665 1556.96 337.517 1557.24 337.322C1557.51 337.123 1557.75 336.88 1557.94 336.592C1558.13 336.301 1558.27 335.967 1558.35 335.591H1559.67C1559.57 336.148 1559.39 336.647 1559.13 337.088C1558.86 337.528 1558.54 337.903 1558.15 338.212C1557.76 338.517 1557.32 338.75 1556.83 338.909C1556.35 339.069 1555.83 339.149 1555.28 339.149C1554.35 339.149 1553.52 338.922 1552.8 338.467C1552.07 338.013 1551.5 337.366 1551.09 336.528C1550.67 335.69 1550.47 334.696 1550.47 333.545C1550.47 332.395 1550.67 331.401 1551.09 330.562C1551.5 329.724 1552.07 329.078 1552.8 328.624C1553.52 328.169 1554.35 327.942 1555.28 327.942C1555.83 327.942 1556.35 328.022 1556.83 328.181C1557.32 328.341 1557.76 328.576 1558.15 328.885C1558.54 329.19 1558.86 329.563 1559.13 330.003C1559.39 330.44 1559.57 330.939 1559.67 331.5ZM1562.55 339V328.091H1563.88V333.503H1564L1568.9 328.091H1570.63L1566.05 333.013L1570.63 339H1569.03L1565.24 333.929L1563.88 335.463V339H1562.55Z" fill="#999999"/>
<path d="M1525.32 1010V999.091H1529.13C1529.89 999.091 1530.52 999.222 1531.02 999.485C1531.51 999.744 1531.88 1000.09 1532.12 1000.53C1532.36 1000.97 1532.48 1001.46 1532.48 1001.99C1532.48 1002.46 1532.4 1002.84 1532.23 1003.15C1532.07 1003.46 1531.85 1003.7 1531.58 1003.87C1531.31 1004.05 1531.02 1004.18 1530.71 1004.27V1004.38C1531.05 1004.4 1531.38 1004.51 1531.72 1004.73C1532.06 1004.94 1532.34 1005.25 1532.57 1005.64C1532.79 1006.04 1532.91 1006.53 1532.91 1007.1C1532.91 1007.65 1532.78 1008.14 1532.53 1008.58C1532.28 1009.01 1531.89 1009.36 1531.36 1009.62C1530.82 1009.87 1530.12 1010 1529.26 1010H1525.32ZM1526.64 1008.83H1529.26C1530.13 1008.83 1530.74 1008.66 1531.1 1008.33C1531.47 1007.99 1531.65 1007.58 1531.65 1007.1C1531.65 1006.73 1531.56 1006.39 1531.37 1006.08C1531.18 1005.76 1530.91 1005.51 1530.56 1005.32C1530.21 1005.13 1529.8 1005.04 1529.33 1005.04H1526.64V1008.83ZM1526.64 1003.88H1529.09C1529.49 1003.88 1529.85 1003.81 1530.17 1003.65C1530.49 1003.49 1530.75 1003.27 1530.94 1002.99C1531.13 1002.71 1531.22 1002.37 1531.22 1001.99C1531.22 1001.51 1531.06 1001.1 1530.72 1000.77C1530.39 1000.43 1529.86 1000.26 1529.13 1000.26H1526.64V1003.88ZM1535.83 1010V999.091H1539.51C1540.37 999.091 1541.06 999.237 1541.61 999.528C1542.16 999.815 1542.56 1000.21 1542.83 1000.72C1543.09 1001.22 1543.22 1001.79 1543.22 1002.44C1543.22 1003.08 1543.09 1003.65 1542.83 1004.15C1542.56 1004.64 1542.16 1005.03 1541.62 1005.32C1541.07 1005.6 1540.38 1005.74 1539.53 1005.74H1536.55V1004.55H1539.49C1540.07 1004.55 1540.54 1004.46 1540.9 1004.29C1541.26 1004.12 1541.52 1003.88 1541.68 1003.57C1541.84 1003.25 1541.92 1002.87 1541.92 1002.44C1541.92 1002 1541.84 1001.62 1541.68 1001.29C1541.51 1000.96 1541.25 1000.71 1540.89 1000.53C1540.53 1000.35 1540.06 1000.26 1539.47 1000.26H1537.15V1010H1535.83ZM1540.96 1005.1L1543.65 1010H1542.11L1539.47 1005.1H1540.96ZM1547.49 999.091V1010H1546.17V999.091H1547.49ZM1559.67 1002.5H1558.35C1558.27 1002.12 1558.13 1001.79 1557.94 1001.5C1557.75 1001.21 1557.51 1000.97 1557.24 1000.77C1556.96 1000.58 1556.66 1000.43 1556.32 1000.33C1555.99 1000.23 1555.64 1000.18 1555.28 1000.18C1554.62 1000.18 1554.02 1000.34 1553.49 1000.68C1552.95 1001.01 1552.53 1001.5 1552.21 1002.15C1551.9 1002.8 1551.74 1003.6 1551.74 1004.55C1551.74 1005.49 1551.9 1006.29 1552.21 1006.94C1552.53 1007.59 1552.95 1008.08 1553.49 1008.41C1554.02 1008.75 1554.62 1008.91 1555.28 1008.91C1555.64 1008.91 1555.99 1008.86 1556.32 1008.76C1556.66 1008.66 1556.96 1008.52 1557.24 1008.32C1557.51 1008.12 1557.75 1007.88 1557.94 1007.59C1558.13 1007.3 1558.27 1006.97 1558.35 1006.59H1559.67C1559.57 1007.15 1559.39 1007.65 1559.13 1008.09C1558.86 1008.53 1558.54 1008.9 1558.15 1009.21C1557.76 1009.52 1557.32 1009.75 1556.83 1009.91C1556.35 1010.07 1555.83 1010.15 1555.28 1010.15C1554.35 1010.15 1553.52 1009.92 1552.8 1009.47C1552.07 1009.01 1551.5 1008.37 1551.09 1007.53C1550.67 1006.69 1550.47 1005.7 1550.47 1004.55C1550.47 1003.39 1550.67 1002.4 1551.09 1001.56C1551.5 1000.72 1552.07 1000.08 1552.8 999.624C1553.52 999.169 1554.35 998.942 1555.28 998.942C1555.83 998.942 1556.35 999.022 1556.83 999.181C1557.32 999.341 1557.76 999.576 1558.15 999.885C1558.54 1000.19 1558.86 1000.56 1559.13 1001C1559.39 1001.44 1559.57 1001.94 1559.67 1002.5ZM1562.55 1010V999.091H1563.88V1004.5H1564L1568.9 999.091H1570.63L1566.05 1004.01L1570.63 1010H1569.03L1565.24 1004.93L1563.88 1006.46V1010H1562.55Z" fill="#999999"/>
<path d="M748.321 86V75.0909H754.905V76.2628H749.642V79.9489H754.564V81.1207H749.642V84.8281H754.99V86H748.321ZM766.686 75.0909V86H765.408L759.463 77.4347H759.357V86H758.036V75.0909H759.314L765.28 83.6776H765.387V75.0909H766.686ZM773.446 86H770.08V75.0909H773.595C774.654 75.0909 775.559 75.3093 776.312 75.7461C777.065 76.1793 777.642 76.8026 778.043 77.6158C778.445 78.4254 778.645 79.3949 778.645 80.5241C778.645 81.6605 778.443 82.6388 778.038 83.4592C777.633 84.2759 777.044 84.9045 776.269 85.3448C775.495 85.7816 774.554 86 773.446 86ZM771.401 84.8281H773.361C774.263 84.8281 775.011 84.6541 775.604 84.3061C776.197 83.9581 776.639 83.4627 776.93 82.82C777.221 82.1772 777.367 81.4119 777.367 80.5241C777.367 79.6435 777.223 78.8853 776.935 78.2496C776.648 77.6104 776.218 77.1204 775.646 76.7795C775.074 76.435 774.362 76.2628 773.51 76.2628H771.401V84.8281ZM781.249 86V85.0412L787.13 76.2628H781.185V75.0909H788.706V76.0497L782.826 84.8281H788.77V86H781.249ZM800.428 80.5455C800.428 81.696 800.22 82.6903 799.805 83.5284C799.389 84.3665 798.819 85.0128 798.095 85.4673C797.37 85.9219 796.543 86.1491 795.613 86.1491C794.682 86.1491 793.855 85.9219 793.13 85.4673C792.406 85.0128 791.836 84.3665 791.42 83.5284C791.005 82.6903 790.797 81.696 790.797 80.5455C790.797 79.3949 791.005 78.4006 791.42 77.5625C791.836 76.7244 792.406 76.0781 793.13 75.6236C793.855 75.169 794.682 74.9418 795.613 74.9418C796.543 74.9418 797.37 75.169 798.095 75.6236C798.819 76.0781 799.389 76.7244 799.805 77.5625C800.22 78.4006 800.428 79.3949 800.428 80.5455ZM799.15 80.5455C799.15 79.6009 798.991 78.8036 798.675 78.1538C798.363 77.5039 797.939 77.0121 797.402 76.6783C796.87 76.3445 796.273 76.1776 795.613 76.1776C794.952 76.1776 794.354 76.3445 793.817 76.6783C793.285 77.0121 792.86 77.5039 792.544 78.1538C792.232 78.8036 792.076 79.6009 792.076 80.5455C792.076 81.4901 792.232 82.2873 792.544 82.9371C792.86 83.587 793.285 84.0788 793.817 84.4126C794.354 84.7464 794.952 84.9134 795.613 84.9134C796.273 84.9134 796.87 84.7464 797.402 84.4126C797.939 84.0788 798.363 83.587 798.675 82.9371C798.991 82.2873 799.15 81.4901 799.15 80.5455ZM812.05 75.0909V86H810.771L804.827 77.4347H804.72V86H803.399V75.0909H804.678L810.643 83.6776H810.75V75.0909H812.05ZM815.443 86V75.0909H822.027V76.2628H816.764V79.9489H821.686V81.1207H816.764V84.8281H822.112V86H815.443Z" fill="#595959"/>
<path d="M748.321 1263V1252.09H754.905V1253.26H749.642V1256.95H754.564V1258.12H749.642V1261.83H754.99V1263H748.321ZM766.686 1252.09V1263H765.408L759.463 1254.43H759.357V1263H758.036V1252.09H759.314L765.28 1260.68H765.387V1252.09H766.686ZM773.446 1263H770.08V1252.09H773.595C774.654 1252.09 775.559 1252.31 776.312 1252.75C777.065 1253.18 777.642 1253.8 778.043 1254.62C778.445 1255.43 778.645 1256.39 778.645 1257.52C778.645 1258.66 778.443 1259.64 778.038 1260.46C777.633 1261.28 777.044 1261.9 776.269 1262.34C775.495 1262.78 774.554 1263 773.446 1263ZM771.401 1261.83H773.361C774.263 1261.83 775.011 1261.65 775.604 1261.31C776.197 1260.96 776.639 1260.46 776.93 1259.82C777.221 1259.18 777.367 1258.41 777.367 1257.52C777.367 1256.64 777.223 1255.89 776.935 1255.25C776.648 1254.61 776.218 1254.12 775.646 1253.78C775.074 1253.44 774.362 1253.26 773.51 1253.26H771.401V1261.83ZM781.249 1263V1262.04L787.13 1253.26H781.185V1252.09H788.706V1253.05L782.826 1261.83H788.77V1263H781.249ZM800.428 1257.55C800.428 1258.7 800.22 1259.69 799.805 1260.53C799.389 1261.37 798.819 1262.01 798.095 1262.47C797.37 1262.92 796.543 1263.15 795.613 1263.15C794.682 1263.15 793.855 1262.92 793.13 1262.47C792.406 1262.01 791.836 1261.37 791.42 1260.53C791.005 1259.69 790.797 1258.7 790.797 1257.55C790.797 1256.39 791.005 1255.4 791.42 1254.56C791.836 1253.72 792.406 1253.08 793.13 1252.62C793.855 1252.17 794.682 1251.94 795.613 1251.94C796.543 1251.94 797.37 1252.17 798.095 1252.62C798.819 1253.08 799.389 1253.72 799.805 1254.56C800.22 1255.4 800.428 1256.39 800.428 1257.55ZM799.15 1257.55C799.15 1256.6 798.991 1255.8 798.675 1255.15C798.363 1254.5 797.939 1254.01 797.402 1253.68C796.87 1253.34 796.273 1253.18 795.613 1253.18C794.952 1253.18 794.354 1253.34 793.817 1253.68C793.285 1254.01 792.86 1254.5 792.544 1255.15C792.232 1255.8 792.076 1256.6 792.076 1257.55C792.076 1258.49 792.232 1259.29 792.544 1259.94C792.86 1260.59 793.285 1261.08 793.817 1261.41C794.354 1261.75 794.952 1261.91 795.613 1261.91C796.273 1261.91 796.87 1261.75 797.402 1261.41C797.939 1261.08 798.363 1260.59 798.675 1259.94C798.991 1259.29 799.15 1258.49 799.15 1257.55ZM812.05 1252.09V1263H810.771L804.827 1254.43H804.72V1263H803.399V1252.09H804.678L810.643 1260.68H810.75V1252.09H812.05ZM815.443 1263V1252.09H822.027V1253.26H816.764V1256.95H821.686V1258.12H816.764V1261.83H822.112V1263H815.443Z" fill="#595959"/>
<line x1="1129" y1="1179" x2="443" y2="1179" stroke="#EAEAEA" stroke-width="4"/>
</svg>
